# xmcd
#
# Track frame offsets: 
#        150
#        14300
#        25920
#        34590
#        50112
#        66627
#        87552
#        100967
#        117210
#        129125
#        145142
#        156427
#        180362
#        215097
#        228422
#        250155
#
# Disc length: 3493 seconds
#
# Revision: 0
# Processed by: cddbd v1.5.2PL0 Copyright (c) Steve Scherf et al.
# Submitted via: ExactAudioCopy v0.90b4
#
DISCID=e10da310
DTITLE=Various Artist - Blues and The City
DYEAR=2009
DGENRE=Blues
TTITLE0=Memphis Slim  - Trouble In Mind
TTITLE1=John Lee Hooker  - Boom Boom
TTITLE2=Joe Williams  - Baby Please Don't Go
TTITLE3=Otis Rush and Little Walter  - Blue Mood
TTITLE4=B.B. King  - The Other Night Blues
TTITLE5=Big Joe Turner  - Stormy Monday Blues
TTITLE6=Blind Sonny Terry  - Chain Gang Specjal
TTITLE7=Memphis Slim  - Cow Cow Blues
TTITLE8=John lee Hooker  - Hard Headed Woman
TTITLE9=Big Joe Williams  - Nobody Knows You When You're Down And Out
TTITLE10=B.B. King  - Catfish Blues
TTITLE11=B.B. King  - You've Done Lost Your Good Thing Now
TTITLE12=Big Joe Turner  - Piney Brown Blues
TTITLE13=Bukka White  - Parchman Farm
TTITLE14=Sonny Terry and Brownie McGhee - Blues For The Lowlands
TTITLE15=Lightnin Hopkins  - Lonesome Dog Blues
EXTD=
EXTT0=
EXTT1=
EXTT2=
EXTT3=
EXTT4=
EXTT5=
EXTT6=
EXTT7=
EXTT8=
EXTT9=
EXTT10=
EXTT11=
EXTT12=
EXTT13=
EXTT14=
EXTT15=
PLAYORDER=
